<svg xmlns="http://www.w3.org/2000/svg" xmlns:xlink="http://www.w3.org/1999/xlink" width="500" zoomAndPan="magnify" viewBox="0 0 375 374.999991" height="500" preserveAspectRatio="xMidYMid meet" version="1.0"><defs><g/><clipPath id="c8c13e86f5"><path d="M 0 47.660156 L 375 47.660156 L 375 156.410156 L 0 156.410156 Z M 0 47.660156 " clip-rule="nonzero"/></clipPath><clipPath id="4437088706"><path d="M 93 124 L 125 124 L 125 156.410156 L 93 156.410156 Z M 93 124 " clip-rule="nonzero"/></clipPath></defs><g fill="#545454" fill-opacity="1"><g transform="translate(93.636016, 237.912714)"><g><path d="M 7.921875 0 L 35.9375 0 C 47.421875 0 56.828125 -9.40625 56.828125 -21.285156 C 56.828125 -26.828125 54.15625 -32.273438 49.5 -35.441406 C 53.957031 -38.511719 55.835938 -44.054688 56.035156 -49.402344 C 56.332031 -61.875 48.511719 -70.886719 35.9375 -70.886719 L 7.921875 -70.886719 Z M 22.175781 -56.726562 L 34.75 -56.726562 C 38.808594 -56.726562 41.285156 -53.558594 41.285156 -49.601562 C 41.285156 -45.738281 38.808594 -42.472656 34.75 -42.472656 L 22.175781 -42.472656 Z M 22.175781 -28.316406 L 34.75 -28.316406 C 38.808594 -28.316406 41.878906 -25.246094 41.878906 -21.285156 C 41.878906 -17.324219 38.808594 -14.15625 34.75 -14.15625 L 22.175781 -14.15625 Z M 22.175781 -28.316406 "/></g></g></g><g fill="#545454" fill-opacity="1"><g transform="translate(155.109972, 237.912714)"><g><path d="M 58.707031 -24.652344 L 58.707031 -70.785156 L 44.648438 -70.785156 L 44.648438 -24.75 C 44.648438 -9.898438 21.679688 -9.898438 21.679688 -24.75 L 21.679688 -70.785156 L 7.523438 -70.785156 L 7.523438 -24.652344 C 7.523438 9.007812 58.707031 9.007812 58.707031 -24.652344 Z M 58.707031 -24.652344 "/></g></g></g><g fill="#545454" fill-opacity="1"><g transform="translate(221.533488, 237.912714)"><g><path d="M 7.921875 0 L 22.078125 0 L 22.078125 -27.71875 L 40.886719 0 L 58.410156 0 L 33.460938 -35.839844 L 56.429688 -70.785156 L 39.898438 -70.785156 L 22.078125 -42.570312 L 22.078125 -70.785156 L 7.921875 -70.785156 Z M 7.921875 0 "/></g></g></g><g fill="#545454" fill-opacity="1"><g transform="translate(281.354349, 237.912714)"><g/></g></g><g clip-path="url(#c8c13e86f5)"><path fill="#00bf63" d="M 118.109375 57.023438 L 180.496094 119.410156 L 359.125 119.410156 L 374.703125 137.910156 L 359.125 156.410156 L 341.449219 156.410156 L 336.507812 146.523438 L 324.972656 146.523438 L 320.03125 156.410156 L 308.945312 156.410156 L 304 146.523438 L 292.617188 146.523438 L 287.675781 156.410156 L 276.664062 156.410156 L 271.722656 146.523438 L 260.1875 146.523438 L 255.242188 156.410156 L 180.570312 156.410156 L 109.121094 84.957031 L 37.292969 156.410156 L 0.296875 156.410156 L 38.867188 117.839844 L 38.867188 80.464844 L 64.707031 80.464844 L 64.707031 92 C 79.460938 77.246094 94.292969 62.414062 109.046875 47.660156 Z M 187.539062 126.453125 L 190.007812 128.921875 L 357.925781 128.921875 L 357.925781 126.453125 Z M 187.539062 126.453125 " fill-opacity="1" fill-rule="nonzero"/></g><g clip-path="url(#4437088706)"><path fill="#00bf63" d="M 93.09375 124.355469 L 106.648438 124.355469 L 106.648438 138.285156 L 93.09375 138.285156 Z M 111.144531 124.355469 L 124.699219 124.355469 L 124.699219 138.285156 L 111.144531 138.285156 Z M 124.699219 142.40625 L 124.699219 156.335938 L 111.144531 156.335938 L 111.144531 142.40625 Z M 106.648438 156.410156 L 93.09375 156.410156 L 93.09375 142.480469 L 106.648438 142.480469 Z M 106.648438 156.410156 " fill-opacity="1" fill-rule="nonzero"/></g><g fill="#545454" fill-opacity="1"><g transform="translate(278.359454, 261.802718)"><g><path d="M 6.96875 0.21875 C 5.875 0.21875 4.898438 0.0859375 4.046875 -0.171875 C 3.203125 -0.441406 2.492188 -0.796875 1.921875 -1.234375 C 1.359375 -1.671875 0.929688 -2.148438 0.640625 -2.671875 L 2.34375 -4.765625 L 2.609375 -4.765625 C 3.078125 -4.054688 3.675781 -3.492188 4.40625 -3.078125 C 5.132812 -2.660156 5.988281 -2.453125 6.96875 -2.453125 C 7.789062 -2.453125 8.410156 -2.628906 8.828125 -2.984375 C 9.253906 -3.335938 9.46875 -3.820312 9.46875 -4.4375 C 9.46875 -4.8125 9.398438 -5.125 9.265625 -5.375 C 9.128906 -5.625 8.90625 -5.835938 8.59375 -6.015625 C 8.28125 -6.191406 7.851562 -6.347656 7.3125 -6.484375 L 5.296875 -6.9375 C 3.890625 -7.257812 2.835938 -7.796875 2.140625 -8.546875 C 1.453125 -9.296875 1.109375 -10.269531 1.109375 -11.46875 C 1.109375 -12.351562 1.328125 -13.128906 1.765625 -13.796875 C 2.210938 -14.472656 2.859375 -15 3.703125 -15.375 C 4.554688 -15.75 5.570312 -15.9375 6.75 -15.9375 C 7.96875 -15.9375 9.003906 -15.773438 9.859375 -15.453125 C 10.722656 -15.128906 11.453125 -14.640625 12.046875 -13.984375 L 10.515625 -11.875 L 10.25 -11.875 C 9.800781 -12.34375 9.289062 -12.691406 8.71875 -12.921875 C 8.144531 -13.160156 7.488281 -13.28125 6.75 -13.28125 C 5.90625 -13.28125 5.257812 -13.128906 4.8125 -12.828125 C 4.363281 -12.523438 4.140625 -12.109375 4.140625 -11.578125 C 4.140625 -11.085938 4.296875 -10.691406 4.609375 -10.390625 C 4.921875 -10.097656 5.460938 -9.875 6.234375 -9.71875 L 8.296875 -9.28125 C 9.816406 -8.957031 10.921875 -8.410156 11.609375 -7.640625 C 12.296875 -6.867188 12.640625 -5.863281 12.640625 -4.625 C 12.640625 -3.644531 12.425781 -2.789062 12 -2.0625 C 11.582031 -1.34375 10.945312 -0.78125 10.09375 -0.375 C 9.238281 0.0195312 8.195312 0.21875 6.96875 0.21875 Z M 6.96875 0.21875 "/></g></g></g><g fill="#545454" fill-opacity="1"><g transform="translate(291.849245, 261.802718)"><g><path d="M 2.046875 0 L 2.046875 -15.703125 L 8.34375 -15.703125 C 9.96875 -15.703125 11.191406 -15.328125 12.015625 -14.578125 C 12.847656 -13.828125 13.265625 -12.796875 13.265625 -11.484375 C 13.265625 -10.535156 13.019531 -9.753906 12.53125 -9.140625 C 12.050781 -8.535156 11.332031 -8.070312 10.375 -7.75 L 10.375 -7.515625 C 10.875 -7.304688 11.273438 -6.988281 11.578125 -6.5625 C 11.878906 -6.144531 12.164062 -5.519531 12.4375 -4.6875 L 14.015625 0 L 10.8125 0 L 9.28125 -4.6875 C 9.125 -5.164062 8.945312 -5.535156 8.75 -5.796875 C 8.550781 -6.054688 8.300781 -6.242188 8 -6.359375 C 7.695312 -6.484375 7.300781 -6.546875 6.8125 -6.546875 L 5.140625 -6.546875 L 5.140625 0 Z M 7.96875 -9 C 9.476562 -9 10.234375 -9.703125 10.234375 -11.109375 C 10.234375 -12.535156 9.476562 -13.25 7.96875 -13.25 L 5.140625 -13.25 L 5.140625 -9 Z M 7.96875 -9 "/></g></g></g><g fill="#545454" fill-opacity="1"><g transform="translate(306.531212, 261.802718)"><g><path d="M 5.140625 -15.703125 L 5.140625 -2.59375 L 12.203125 -2.59375 L 12.203125 0 L 2.046875 0 L 2.046875 -15.703125 Z M 5.140625 -15.703125 "/></g></g></g></svg>